#!OML:ASF H:\Martial Arts Walks\Project 1\Capture day 1\Session 1\male.ASF
:FULLY-SPECIFIED
:DEGREES
3739
root -0.0936156 14.1803 -23.5571 -356.314 10.2494 -348.931
lowerback 8.23496 1.75132 -15.281
upperback -2.34928 0.512744 -2.15181
thorax -7.37205 0.883021 6.17133
lowerneck -3.32391 -6.6352 -8.22056
upperneck 10.7634 -9.06155 6.58111
head 4.43873 -4.47508 2.87078
rclavicle -2.64632e-015 -3.18055e-014
rhumerus 13.9827 -5.10546 -95.0933
rradius 94.8217
rwrist -64.5518
rhand -29.9817 -59.7005
rfingers 7.12502
rthumb -3.29983 990.345
lclavicle -2.64632e-015 -3.18055e-014
lhumerus -184.048 208.957 -71.6231
lradius 25.292
lwrist -63.8009
lhand -47.6286 806.234
lfingers 7.12502
lthumb -20.3115 604.808
rfemur -63.4349 -19.9761 7.72863
rtibia 74.4434
rfoot -19.1333 -18.2779
rtoes -40.7823
lfemur 11.5195 10.2196 -20.2661
ltibia 39.7768
lfoot -33.8142 31.9562
ltoes -21.4935
3740
root -0.0948503 14.175 -23.5501 -356.298 10.3027 -348.917
lowerback 8.20531 1.72034 -15.2906
upperback -2.33266 0.478509 -2.14473
thorax -7.32892 0.863294 6.19026
lowerneck -3.33244 -6.61566 -8.24569
upperneck 10.7261 -9.03464 6.61366
head 4.42931 -4.46119 2.88667
rclavicle 4.87488e-015 -9.24349e-015
rhumerus 14.036 -5.06311 -95.1014
rradius 94.7901
rwrist -64.5293
rhand -29.9855 -59.683
rfingers 7.12502
rthumb -3.30342 990.363
lclavicle 4.87488e-015 -9.24349e-015
lhumerus -183.966 208.772 -71.6364
lradius 25.157
lwrist -63.7837
lhand -47.6431 806.072
lfingers 7.12502
lthumb -20.3255 604.971
rfemur -63.4648 -20.0384 7.71456
rtibia 74.5364
rfoot -19.1457 -18.33
rtoes -40.7398
lfemur 11.5123 10.2106 -20.2413
ltibia 39.8179
lfoot -33.8801 31.9006
ltoes -21.429
3741
root -0.0957199 14.1694 -23.5435 -356.289 10.3553 -348.858
lowerback 8.20306 1.70415 -15.3484
upperback -2.33711 0.450095 -2.15344
thorax -7.32768 0.852002 6.21683
lowerneck -3.25459 -6.60885 -8.27041
upperneck 10.6787 -9.03203 6.65702
head 4.40465 -4.46049 2.90726
rclavicle -1.66479e-014 3.51849e-014
rhumerus 14.0298 -5.05814 -95.0808
rradius 94.7515
rwrist -64.5485
rhand -29.9991 -59.7355
rfingers 7.12502
rthumb -3.31657 990.311
lclavicle -1.66479e-014 3.51849e-014
lhumerus -183.996 208.596 -71.6036
lradius 25.0579
lwrist -63.7951
lhand -47.7221 805.854
lfingers 7.12502
lthumb -20.4014 605.197
rfemur -63.4832 -20.1133 7.64672
rtibia 74.6301
rfoot -19.238 -18.3582
rtoes -40.7921
lfemur 11.5176 10.1895 -20.2713
ltibia 39.8508
lfoot -33.8986 31.9034
ltoes -21.3957
3742
root -0.0980708 14.1692 -23.5362 -356.286 10.3838 -348.887
lowerback 8.16878 1.71392 -15.3231
upperback -2.33616 0.473098 -2.14537
thorax -7.31128 0.861124 6.20863
lowerneck -3.23699 -6.63575 -8.24298
upperneck 10.6912 -9.06593 6.6021
head 4.4045 -4.47902 2.88428
rclavicle 5.48754e-015 3.55452e-014
rhumerus 14.0114 -5.10945 -95.0562
rradius 94.7619
rwrist -64.567
rhand -30.0268 -59.6991
rfingers 7.12502
rthumb -3.34336 990.347
lclavicle 5.48754e-015 3.55452e-014
lhumerus -183.991 208.773 -71.6031
lradius 24.9611
lwrist -63.5874
lhand -47.8452 805.716
lfingers 7.12502
lthumb -20.5196 605.348
rfemur -63.4704 -20.1168 7.67574
rtibia 74.6897
rfoot -19.2381 -18.4365
rtoes -40.726
lfemur 11.5337 10.2031 -20.1912
ltibia 39.8635
lfoot -33.9583 31.8314
ltoes -21.3436
3743
root -0.0981746 14.1624 -23.5309 -356.274 10.4053 -348.841
lowerback 8.16214 1.69577 -15.3591
upperback -2.32989 0.446399 -2.1553
thorax -7.29529 0.848096 6.22182
lowerneck -3.23221 -6.61101 -8.22183
upperneck 10.5934 -9.03254 6.62634
head 4.37137 -4.46102 2.89193
rclavicle 4.73715e-015 2.46617e-014
rhumerus 14.0524 -5.07586 -95.0609
rradius 94.7081
rwrist -64.5232
rhand -30.0181 -59.4616
rfingers 7.12502
rthumb -3.33494 990.585
lclavicle 4.73715e-015 2.46617e-014
lhumerus -183.94 208.606 -71.6114
lradius 24.8841
lwrist -63.749
lhand -47.8579 805.462
lfingers 7.12502
lthumb -20.5319 605.604
rfemur -63.5072 -20.1421 7.61752
rtibia 74.7739
rfoot -19.2369 -18.5069
rtoes -40.6605
lfemur 11.5378 10.1847 -20.2281
ltibia 39.8778
lfoot -33.9306 31.8827
ltoes -21.4172
3744
root -0.0979778 14.1579 -23.5245 -356.252 10.3615 -348.828
lowerback 8.10742 1.70771 -15.3575
upperback -2.34056 0.471088 -2.16649
thorax -7.28082 0.859281 6.20536
lowerneck -3.2513 -6.61346 -8.25608
upperneck 10.689 -9.0411 6.66645
head 4.40768 -4.46397 2.9073
rclavicle -2.72564e-014 9.51682e-015
rhumerus 14.0366 -5.1014 -95.0512
rradius 94.6766
rwrist -64.5003
rhand -29.9654 -59.318
rfingers 7.12502
rthumb -3.284 990.728
lclavicle -2.72564e-014 9.51682e-015
lhumerus -183.936 208.657 -71.628
lradius 24.8037
lwrist -63.8739
lhand -47.8853 805.226
lfingers 7.12502
lthumb -20.5582 605.842
rfemur -63.566 -20.1037 7.6079
rtibia 74.8414
rfoot -19.2394 -18.5425
rtoes -40.629
lfemur 11.5519 10.2111 -20.2407
ltibia 39.8842
lfoot -34.0031 31.8543
ltoes -21.32
3745
root -0.0975837 14.154 -23.5192 -356.269 10.3599 -348.818
lowerback 8.1052 1.70948 -15.3434
upperback -2.33679 0.475531 -2.17095
thorax -7.27589 0.860171 6.19215
lowerneck -3.26216 -6.61271 -8.26076
upperneck 10.6849 -9.03687 6.64974
head 4.40743 -4.46267 2.90285
rclavicle -2.03241e-014 3.55328e-014
rhumerus 14.0428 -5.14976 -95.0655
rradius 94.6337
rwrist -64.6646
rhand -29.9175 -59.219
rfingers 7.12502
rthumb -3.23775 990.826
lclavicle -2.03241e-014 3.55328e-014
lhumerus -183.907 208.788 -71.6565
lradius 24.7435
lwrist -63.8934
lhand -47.8897 805.319
lfingers 7.12502
lthumb -20.5624 605.75
rfemur -63.5686 -20.1078 7.58689
rtibia 74.9219
rfoot -19.2523 -18.5733
rtoes -40.5915
lfemur 11.5944 10.21 -20.2401
ltibia 39.9
lfoot -34.0021 31.8902
ltoes -21.3062
3746
root -0.0977824 14.1504 -23.5145 -356.259 10.3247 -348.82
lowerback 8.08536 1.71644 -15.337
upperback -2.35141 0.488052 -2.16563
thorax -7.28334 0.867351 6.19248
lowerneck -3.27995 -6.61026 -8.30431
upperneck 10.7743 -9.03596 6.67279
head 4.44062 -4.46219 2.91523
rclavicle 3.39633e-014 -6.52262e-015
rhumerus 14.0088 -5.11683 -95.0504
rradius 94.6432
rwrist -64.5366
rhand -29.9201 -59.2674
rfingers 7.12502
rthumb -3.24028 990.777
lclavicle 3.39633e-014 -6.52262e-015
lhumerus -183.928 208.91 -71.6778
lradius 24.7393
lwrist -64.0007
lhand -47.7011 805.63
lfingers 7.12502
lthumb -20.3812 605.42
rfemur -63.6202 -20.079 7.59794
rtibia 74.9988
rfoot -19.3594 -18.503
rtoes -40.745
lfemur 11.5975 10.2225 -20.246
ltibia 39.9153
lfoot -33.9902 31.9476
ltoes -21.3163
3747
root -0.0980077 14.1455 -23.5102 -356.238 10.3093 -348.766
lowerback 8.07254 1.72309 -15.3767
upperback -2.36652 0.492249 -2.18401
thorax -7.29463 0.872196 6.19342
lowerneck -3.28401 -6.6038 -8.2908
upperneck 10.7894 -9.02731 6.66143
head 4.44411 -4.45784 2.90991
rclavicle -2.82463e-015 4.80686e-014
rhumerus 13.9846 -5.14802 -95.0649
rradius 94.6285
rwrist -64.616
rhand -29.9183 -59.3833
rfingers 7.12502
rthumb -3.23857 990.662
lclavicle -2.82463e-015 4.80686e-014
lhumerus -183.936 209.037 -71.6957
lradius 24.7
lwrist -64.0593
lhand -47.6633 805.604
lfingers 7.12502
lthumb -20.3448 605.442
rfemur -63.6773 -20.0793 7.54477
rtibia 75.0777
rfoot -19.3534 -18.519
rtoes -40.6955
lfemur 11.5986 10.2226 -20.3068
ltibia 39.9295
lfoot -34.0175 31.9838
ltoes -21.3303
3748
root -0.0985932 14.1417 -23.5066 -356.229 10.2973 -348.776
lowerback 8.05575 1.72237 -15.3706
upperback -2.37726 0.494897 -2.17056
thorax -7.29739 0.874305 6.20435
lowerneck -3.25874 -6.58559 -8.30419
upperneck 10.7661 -9.00093 6.64881
head 4.43081 -4.44659 2.91107
rclavicle 3.37521e-015 -1.72694e-015
rhumerus 13.9662 -5.1424 -95.0612
rradius 94.5908
rwrist -64.6341
rhand -29.8771 -59.5043
rfingers 7.12502
rthumb -3.19873 990.54
lclavicle 3.37521e-015 -1.72694e-015
lhumerus -183.953 209.111 -71.7036
lradius 24.7147
lwrist -64.0625
lhand -47.6288 805.75
lfingers 7.12502
lthumb -20.3117 605.293
rfemur -63.7185 -20.0583 7.55921
rtibia 75.1428
rfoot -19.4218 -18.5083
rtoes -40.7747
lfemur 11.5922 10.2195 -20.2995
ltibia 39.955
lfoot -34.0368 32.0223
ltoes -21.2687
3749
root -0.0988378 14.137 -23.5032 -356.227 10.3104 -348.756
lowerback 8.06486 1.72735 -15.3734
upperback -2.39053 0.497686 -2.17647
thorax -7.31811 0.877717 6.19861
lowerneck -3.24533 -6.58672 -8.2957
upperneck 10.7713 -9.00227 6.63141
head 4.42909 -4.44801 2.90471
rclavicle -7.56789e-015 2.42766e-014
rhumerus 13.9558 -5.17047 -95.0548
rradius 94.5575
rwrist -64.702
rhand -29.942 -59.4707
rfingers 7.12502
rthumb -3.26144 990.574
lclavicle -7.56789e-015 2.42766e-014
lhumerus -184 209.184 -71.6873
lradius 24.719
lwrist -63.9852
lhand -47.6067 805.671
lfingers 7.12502
lthumb -20.2904 605.369
rfemur -63.7383 -20.0832 7.53444
rtibia 75.2042
rfoot -19.3341 -18.6124
rtoes -40.6201
lfemur 11.6159 10.1635 -20.3311
ltibia 39.9785
lfoot -34.2093 31.9247
ltoes -21.1034
3750
root -0.0993733 14.1343 -23.5001 -356.235 10.3035 -348.788
lowerback 8.04951 1.72105 -15.3588
upperback -2.39898 0.494527 -2.15174
thorax -7.31772 0.876596 6.21808
lowerneck -3.19861 -6.56921 -8.31415
upperneck 10.7494 -8.97998 6.63455
head 4.41386 -4.43862 2.91195
rclavicle 1.80302e-014 -4.86712e-015
rhumerus 13.9623 -5.14602 -95.0627
rradius 94.5074
rwrist -64.6914
rhand -29.9188 -59.5217
rfingers 7.12502
rthumb -3.239 990.523
lclavicle 1.80302e-014 -4.86712e-015
lhumerus -184.04 209.149 -71.6701
lradius 24.7289
lwrist -63.8892
lhand -47.6412 805.398
lfingers 7.12502
lthumb -20.3236 605.646
rfemur -63.7461 -20.0559 7.5614
rtibia 75.2486
rfoot -19.3589 -18.6153
rtoes -40.6744
lfemur 11.6215 10.1598 -20.2983
ltibia 40.0054
lfoot -34.2136 31.9608
ltoes -21.0854
3751
root -0.100111 14.1321 -23.4972 -356.24 10.3458 -348.813
lowerback 8.03707 1.70692 -15.3365
upperback -2.39446 0.482214 -2.13419
thorax -7.3022 0.868832 6.22711
lowerneck -3.17434 -6.56803 -8.29282
upperneck 10.725 -8.97544 6.59063
head 4.39914 -4.43821 2.89652
rclavicle 6.29917e-015 7.12053e-016
rhumerus 13.9895 -5.14495 -95.0618
rradius 94.4537
rwrist -64.6837
rhand -29.9862 -59.5731
rfingers 7.12502
rthumb -3.3041 990.473
lclavicle 6.29917e-015 7.12053e-016
lhumerus -184.071 209.145 -71.6519
lradius 24.7313
lwrist -63.7308
lhand -47.666 805.15
lfingers 7.12502
lthumb -20.3475 605.896
rfemur -63.7342 -20.087 7.5812
rtibia 75.2875
rfoot -19.353 -18.6822
rtoes -40.6151
lfemur 11.6168 10.1063 -20.2749
ltibia 40.0312
lfoot -34.1775 32.0375
ltoes -21.1269
